<svg xmlns="http://www.w3.org/2000/svg" viewBox="0 0 128 128" width="100%" height="100%">
  <defs>
    <linearGradient id="brandBg" x1="0%" y1="0%" x2="100%" y2="100%">
      <stop offset="0%" stop-color="#163A2B"/>
      <stop offset="100%" stop-color="#091710"/>
    </linearGradient>
    <linearGradient id="goldGrad" x1="0%" y1="0%" x2="100%" y2="100%">
      <stop offset="0%" stop-color="#F3C36A"/>
      <stop offset="50%" stop-color="#E5A83B"/>
      <stop offset="100%" stop-color="#C2851D"/>
    </linearGradient>
  </defs>
  
  <!-- Rounded Base Background -->
  <rect width="128" height="128" rx="28" fill="url(#brandBg)"/>
  <rect width="124" height="124" x="2" y="2" rx="26" fill="none" stroke="#E5A83B" stroke-width="2" stroke-opacity="0.3"/>
  
  <!-- Luxury Furniture / "H" Monogram Icon -->
  <g fill="url(#goldGrad)">
    <!-- Sofa / Throne Crown Silhouette -->
    <path d="M96 52V42a10 10 0 0 0-10-10H42a10 10 0 0 0-10 10v10H24a6 6 0 0 0-6 6v14a6 6 0 0 0 6 6v8a4 4 0 0 0 4 4h4a4 4 0 0 0 4-4v-8h56v8a4 4 0 0 0 4 4h4a4 4 0 0 0 4-4v-8a6 6 0 0 0 6-6V58a6 6 0 0 0-6-6h-8zm-56-10a4 4 0 0 1 4-4h40a4 4 0 0 1 4 4v10H40V42zm64 28a2 2 0 0 1-2 2H26a2 2 0 0 1-2-2V58a2 2 0 0 1 2-2h76a2 2 0 0 1 2 2v12z"/>
    <!-- Center Diamond Sparkle -->
    <path d="M64 22l3 6 6 3-6 3-3 6-3-6-6-3 6-3z"/>
  </g>
</svg>
